<svg width="16" height="16" viewBox="0 0 16 16" fill="none" xmlns="http://www.w3.org/2000/svg">
<path d="M5.03455 8.44426C5.03455 7.05332 6.16113 5.92545 7.55122 5.92545C8.94131 5.92545 10.0685 7.05332 10.0685 8.44426C10.0685 9.83519 8.94131 10.9631 7.55122 10.9631C6.16113 10.9631 5.03455 9.83519 5.03455 8.44426ZM3.67376 8.44426C3.67376 10.5871 5.4097 12.3241 7.55122 12.3241C9.69275 12.3241 11.4287 10.5871 11.4287 8.44426C11.4287 6.30142 9.69275 4.56443 7.55122 4.56443C5.4097 4.56443 3.67376 6.30142 3.67376 8.44426ZM10.676 4.41059C10.676 4.58992 10.729 4.76524 10.8286 4.91439C10.9281 5.06353 11.0695 5.1798 11.2351 5.2485C11.4006 5.31719 11.5828 5.33522 11.7586 5.3003C11.9344 5.26539 12.0959 5.1791 12.2227 5.05234C12.3494 4.92559 12.4358 4.76407 12.4708 4.5882C12.5059 4.41233 12.488 4.23002 12.4195 4.06431C12.351 3.89861 12.2349 3.75695 12.0859 3.65726C11.9369 3.55757 11.7618 3.50433 11.5825 3.50426H11.5822C11.342 3.50437 11.1116 3.59988 10.9417 3.76982C10.7718 3.93975 10.6762 4.17022 10.676 4.41059ZM4.50053 14.5945C3.76431 14.561 3.36416 14.4383 3.09824 14.3346C2.74568 14.1973 2.49414 14.0337 2.22966 13.7694C1.96519 13.5051 1.80148 13.2537 1.66483 12.9009C1.56117 12.635 1.43854 12.2344 1.40507 11.4978C1.36846 10.7013 1.36115 10.4621 1.36115 8.44432C1.36115 6.42655 1.36907 6.18796 1.40507 5.39085C1.4386 4.65419 1.56214 4.25446 1.66483 3.98771C1.80208 3.63494 1.96555 3.38324 2.22966 3.11861C2.49378 2.85397 2.74508 2.69016 3.09824 2.55343C3.36404 2.4497 3.76431 2.327 4.50053 2.29351C5.29649 2.25688 5.53559 2.24956 7.55122 2.24956C9.56685 2.24956 9.8062 2.25748 10.6028 2.29351C11.339 2.32706 11.7385 2.45067 12.0051 2.55343C12.3577 2.69016 12.6092 2.85433 12.8737 3.11861C13.1382 3.38288 13.3013 3.63494 13.4385 3.98771C13.5422 4.25367 13.6648 4.65419 13.6983 5.39085C13.7349 6.18796 13.7422 6.42655 13.7422 8.44432C13.7422 10.4621 13.7349 10.7007 13.6983 11.4978C13.6648 12.2344 13.5415 12.6348 13.4385 12.9009C13.3013 13.2537 13.1378 13.5054 12.8737 13.7694C12.6096 14.0335 12.3577 14.1973 12.0051 14.3346C11.7393 14.4383 11.339 14.561 10.6028 14.5945C9.80686 14.6311 9.56776 14.6385 7.55122 14.6385C5.53468 14.6385 5.29625 14.6311 4.50053 14.5945ZM4.438 0.934186C3.63413 0.970816 3.08483 1.09836 2.60511 1.28514C2.1083 1.47802 1.68773 1.7368 1.26746 2.15666C0.847187 2.57652 0.589237 2.99801 0.396469 3.49513C0.209803 3.97544 0.0823385 4.52478 0.0457302 5.32914C0.00851778 6.13477 0 6.39233 0 8.44426C0 10.4962 0.00851778 10.7537 0.0457302 11.5594C0.0823385 12.3638 0.209803 12.9131 0.396469 13.3934C0.589237 13.8902 0.847247 14.3122 1.26746 14.7319C1.68767 15.1515 2.1083 15.4099 2.60511 15.6034C3.08573 15.7902 3.63413 15.9177 4.438 15.9543C5.24357 15.991 5.50055 16.0001 7.55122 16.0001C9.60189 16.0001 9.8593 15.9916 10.6644 15.9543C11.4684 15.9177 12.0173 15.7902 12.4973 15.6034C12.9938 15.4099 13.4147 15.1517 13.835 14.7319C14.2553 14.312 14.5127 13.8902 14.706 13.3934C14.8926 12.9131 15.0207 12.3637 15.0567 11.5594C15.0933 10.7531 15.1018 10.4962 15.1018 8.44426C15.1018 6.39233 15.0933 6.13477 15.0567 5.32914C15.0201 4.52472 14.8926 3.97513 14.706 3.49513C14.5127 2.99832 14.2546 2.57719 13.835 2.15666C13.4154 1.73613 12.9938 1.47802 12.4979 1.28514C12.0173 1.09836 11.4683 0.970212 10.665 0.934186C9.8599 0.897555 9.6025 0.888428 7.55183 0.888428C5.50116 0.888428 5.24357 0.896951 4.438 0.934186Z" fill="white"/>
<path d="M5.03455 8.44426C5.03455 7.05332 6.16113 5.92545 7.55122 5.92545C8.94131 5.92545 10.0685 7.05332 10.0685 8.44426C10.0685 9.83519 8.94131 10.9631 7.55122 10.9631C6.16113 10.9631 5.03455 9.83519 5.03455 8.44426ZM3.67376 8.44426C3.67376 10.5871 5.4097 12.3241 7.55122 12.3241C9.69275 12.3241 11.4287 10.5871 11.4287 8.44426C11.4287 6.30142 9.69275 4.56443 7.55122 4.56443C5.4097 4.56443 3.67376 6.30142 3.67376 8.44426ZM10.676 4.41059C10.676 4.58992 10.729 4.76524 10.8286 4.91439C10.9281 5.06353 11.0695 5.1798 11.2351 5.2485C11.4006 5.31719 11.5828 5.33522 11.7586 5.3003C11.9344 5.26539 12.0959 5.1791 12.2227 5.05234C12.3494 4.92559 12.4358 4.76407 12.4708 4.5882C12.5059 4.41233 12.488 4.23002 12.4195 4.06431C12.351 3.89861 12.2349 3.75695 12.0859 3.65726C11.9369 3.55757 11.7618 3.50433 11.5825 3.50426H11.5822C11.342 3.50437 11.1116 3.59988 10.9417 3.76982C10.7718 3.93975 10.6762 4.17022 10.676 4.41059ZM4.50053 14.5945C3.76431 14.561 3.36416 14.4383 3.09824 14.3346C2.74568 14.1973 2.49414 14.0337 2.22966 13.7694C1.96519 13.5051 1.80148 13.2537 1.66483 12.9009C1.56117 12.635 1.43854 12.2344 1.40507 11.4978C1.36846 10.7013 1.36115 10.4621 1.36115 8.44432C1.36115 6.42655 1.36907 6.18796 1.40507 5.39085C1.4386 4.65419 1.56214 4.25446 1.66483 3.98771C1.80208 3.63494 1.96555 3.38324 2.22966 3.11861C2.49378 2.85397 2.74508 2.69016 3.09824 2.55343C3.36404 2.4497 3.76431 2.327 4.50053 2.29351C5.29649 2.25688 5.53559 2.24956 7.55122 2.24956C9.56685 2.24956 9.8062 2.25748 10.6028 2.29351C11.339 2.32706 11.7385 2.45067 12.0051 2.55343C12.3577 2.69016 12.6092 2.85433 12.8737 3.11861C13.1382 3.38288 13.3013 3.63494 13.4385 3.98771C13.5422 4.25367 13.6648 4.65419 13.6983 5.39085C13.7349 6.18796 13.7422 6.42655 13.7422 8.44432C13.7422 10.4621 13.7349 10.7007 13.6983 11.4978C13.6648 12.2344 13.5415 12.6348 13.4385 12.9009C13.3013 13.2537 13.1378 13.5054 12.8737 13.7694C12.6096 14.0335 12.3577 14.1973 12.0051 14.3346C11.7393 14.4383 11.339 14.561 10.6028 14.5945C9.80686 14.6311 9.56776 14.6385 7.55122 14.6385C5.53468 14.6385 5.29625 14.6311 4.50053 14.5945ZM4.438 0.934186C3.63413 0.970816 3.08483 1.09836 2.60511 1.28514C2.1083 1.47802 1.68773 1.7368 1.26746 2.15666C0.847187 2.57652 0.589237 2.99801 0.396469 3.49513C0.209803 3.97544 0.0823385 4.52478 0.0457302 5.32914C0.00851778 6.13477 0 6.39233 0 8.44426C0 10.4962 0.00851778 10.7537 0.0457302 11.5594C0.0823385 12.3638 0.209803 12.9131 0.396469 13.3934C0.589237 13.8902 0.847247 14.3122 1.26746 14.7319C1.68767 15.1515 2.1083 15.4099 2.60511 15.6034C3.08573 15.7902 3.63413 15.9177 4.438 15.9543C5.24357 15.991 5.50055 16.0001 7.55122 16.0001C9.60189 16.0001 9.8593 15.9916 10.6644 15.9543C11.4684 15.9177 12.0173 15.7902 12.4973 15.6034C12.9938 15.4099 13.4147 15.1517 13.835 14.7319C14.2553 14.312 14.5127 13.8902 14.706 13.3934C14.8926 12.9131 15.0207 12.3637 15.0567 11.5594C15.0933 10.7531 15.1018 10.4962 15.1018 8.44426C15.1018 6.39233 15.0933 6.13477 15.0567 5.32914C15.0201 4.52472 14.8926 3.97513 14.706 3.49513C14.5127 2.99832 14.2546 2.57719 13.835 2.15666C13.4154 1.73613 12.9938 1.47802 12.4979 1.28514C12.0173 1.09836 11.4683 0.970212 10.665 0.934186C9.8599 0.897555 9.6025 0.888428 7.55183 0.888428C5.50116 0.888428 5.24357 0.896951 4.438 0.934186Z" fill="white"/>
</svg>
