<svg width="18" height="15" viewBox="0 0 18 15" fill="none" xmlns="http://www.w3.org/2000/svg">
<path d="M17.1891 2.35416C16.5682 2.62196 15.9014 2.80299 15.2003 2.88437C15.9159 2.46786 16.464 1.80783 16.7228 1.0223C16.0431 1.41473 15.2993 1.691 14.5236 1.83911C13.8923 1.185 12.9921 0.776611 11.9961 0.776611C10.0845 0.776611 8.53417 2.28308 8.53417 4.14246C8.53417 4.40592 8.56469 4.66294 8.62337 4.90971C5.74566 4.76912 3.19438 3.42913 1.48668 1.39302C1.18849 1.89029 1.01781 2.46846 1.01781 3.08535C1.01781 4.25294 1.62916 5.28312 2.55809 5.88658C2.00818 5.87001 1.47033 5.72572 0.989517 5.46577V5.5083C0.989517 7.13924 2.18285 8.49917 3.76694 8.80846C3.47595 8.88597 3.17056 8.92646 2.85463 8.92646C2.63126 8.92646 2.41454 8.90591 2.20283 8.8672C2.64346 10.204 3.9222 11.177 5.43692 11.2045C4.2519 12.1075 2.75872 12.6458 1.13696 12.6458C0.857629 12.6458 0.581563 12.6296 0.310547 12.5979C1.8431 13.5531 3.66276 14.1108 5.6182 14.1108C11.9867 14.1108 15.4697 8.98198 15.4697 4.53421C15.4697 4.38819 15.4664 4.24326 15.4592 4.09884C16.1378 3.62171 16.7235 3.03093 17.1891 2.35416Z" fill="white"/>
</svg>
